G04*
G04 #@! TF.GenerationSoftware,Altium Limited,Altium Designer,26.1.1 (7)*
G04*
G04 Layer_Physical_Order=1*
G04 Layer_Color=255*
%FSLAX25Y25*%
%MOIN*%
G70*
G04*
G04 #@! TF.SameCoordinates,7FDA374B-3F72-4115-8A6B-894D552E39AA*
G04*
G04*
G04 #@! TF.FilePolarity,Positive*
G04*
G01*
G75*
%ADD15C,0.01000*%
G04:AMPARAMS|DCode=16|XSize=12.99mil|YSize=15.75mil|CornerRadius=3.25mil|HoleSize=0mil|Usage=FLASHONLY|Rotation=180.000|XOffset=0mil|YOffset=0mil|HoleType=Round|Shape=RoundedRectangle|*
%AMROUNDEDRECTD16*
21,1,0.01299,0.00925,0,0,180.0*
21,1,0.00650,0.01575,0,0,180.0*
1,1,0.00650,-0.00325,0.00463*
1,1,0.00650,0.00325,0.00463*
1,1,0.00650,0.00325,-0.00463*
1,1,0.00650,-0.00325,-0.00463*
%
%ADD16ROUNDEDRECTD16*%
G04:AMPARAMS|DCode=17|XSize=14.96mil|YSize=15.75mil|CornerRadius=3.74mil|HoleSize=0mil|Usage=FLASHONLY|Rotation=180.000|XOffset=0mil|YOffset=0mil|HoleType=Round|Shape=RoundedRectangle|*
%AMROUNDEDRECTD17*
21,1,0.01496,0.00827,0,0,180.0*
21,1,0.00748,0.01575,0,0,180.0*
1,1,0.00748,-0.00374,0.00413*
1,1,0.00748,0.00374,0.00413*
1,1,0.00748,0.00374,-0.00413*
1,1,0.00748,-0.00374,-0.00413*
%
%ADD17ROUNDEDRECTD17*%
G04:AMPARAMS|DCode=18|XSize=49.38mil|YSize=20.95mil|CornerRadius=10.48mil|HoleSize=0mil|Usage=FLASHONLY|Rotation=90.000|XOffset=0mil|YOffset=0mil|HoleType=Round|Shape=RoundedRectangle|*
%AMROUNDEDRECTD18*
21,1,0.04938,0.00000,0,0,90.0*
21,1,0.02843,0.02095,0,0,90.0*
1,1,0.02095,0.00000,0.01422*
1,1,0.02095,0.00000,-0.01422*
1,1,0.02095,0.00000,-0.01422*
1,1,0.02095,0.00000,0.01422*
%
%ADD18ROUNDEDRECTD18*%
%ADD19R,0.01496X0.01575*%
%ADD20R,0.15354X0.26614*%
%ADD21R,0.02756X0.26614*%
%ADD22R,0.05512X0.04331*%
%ADD23R,0.02095X0.04938*%
%ADD24R,0.07900X0.23600*%
%ADD25C,0.06000*%
%ADD26C,0.10000*%
%ADD27R,0.06000X0.06000*%
%ADD28C,0.02000*%
%ADD29C,0.02800*%
%ADD30C,0.01500*%
G36*
X235000Y139000D02*
Y60000D01*
X231000Y56000D01*
X209000D01*
X205323Y59677D01*
Y139323D01*
X209000Y143000D01*
X231000D01*
X235000Y139000D01*
D02*
G37*
G36*
X201105Y140769D02*
X200914Y140307D01*
X198811D01*
Y128500D01*
X201189D01*
Y123500D01*
X198811D01*
Y111693D01*
X201040D01*
X201231Y111231D01*
X195000Y105000D01*
Y93500D01*
X195374D01*
X201105Y87769D01*
X200914Y87307D01*
X198811D01*
Y75500D01*
X201189D01*
Y70500D01*
X198811D01*
Y58693D01*
X201040D01*
X201231Y58231D01*
X199000Y56000D01*
X183000D01*
X153000Y86000D01*
X90047D01*
X78218Y74171D01*
X77756Y74362D01*
Y74374D01*
X74000D01*
X70244D01*
Y72756D01*
X65756D01*
Y74421D01*
X62000D01*
X58244D01*
Y72756D01*
X57744D01*
X5000Y125500D01*
Y135500D01*
X7500Y138000D01*
X26000D01*
X31500Y143500D01*
X198374D01*
X201105Y140769D01*
D02*
G37*
G36*
X105191Y31227D02*
X97273D01*
X96463Y32037D01*
Y41037D01*
X94591Y42909D01*
X88985D01*
Y47240D01*
X94740D01*
X95315Y47815D01*
X95497D01*
Y47997D01*
X96463Y48963D01*
Y54000D01*
X97291Y54827D01*
X105191D01*
Y31227D01*
D02*
G37*
G36*
X151000Y68500D02*
Y56000D01*
X182000Y25000D01*
Y20500D01*
X185500Y17000D01*
Y7000D01*
X183500Y5000D01*
X176500D01*
X175000Y6500D01*
Y13000D01*
X172000Y16000D01*
X157000D01*
X154500Y13500D01*
Y6500D01*
X153000Y5000D01*
X146500D01*
X145000Y6500D01*
Y13000D01*
X142000Y16000D01*
X129518D01*
X114291Y31227D01*
Y54827D01*
X114327D01*
X118500Y59000D01*
X120500D01*
Y62000D01*
X126500Y68000D01*
X127052D01*
Y70575D01*
X128265D01*
X129690Y72000D01*
X147500D01*
X151000Y68500D01*
D02*
G37*
%LPC*%
G36*
X231500Y139958D02*
Y138500D01*
X232958D01*
X232696Y139133D01*
X232133Y139696D01*
X231500Y139958D01*
D02*
G37*
G36*
X230500D02*
X229867Y139696D01*
X229305Y139133D01*
X229042Y138500D01*
X230500D01*
Y139958D01*
D02*
G37*
G36*
X232958Y137500D02*
X229042D01*
X229305Y136867D01*
X229867Y136304D01*
X229999Y136250D01*
Y135750D01*
X229867Y135696D01*
X229305Y135133D01*
X229042Y134500D01*
X232958D01*
X232696Y135133D01*
X232133Y135696D01*
X232001Y135750D01*
Y136250D01*
X232133Y136304D01*
X232696Y136867D01*
X232958Y137500D01*
D02*
G37*
G36*
Y133500D02*
X229042D01*
X229305Y132867D01*
X229867Y132305D01*
X229999Y132250D01*
Y131750D01*
X229867Y131695D01*
X229305Y131133D01*
X229042Y130500D01*
X232958D01*
X232696Y131133D01*
X232133Y131695D01*
X232001Y131750D01*
Y132250D01*
X232133Y132305D01*
X232696Y132867D01*
X232958Y133500D01*
D02*
G37*
G36*
Y129500D02*
X229042D01*
X229305Y128867D01*
X229867Y128305D01*
X229999Y128250D01*
Y127750D01*
X229867Y127696D01*
X229305Y127133D01*
X229042Y126500D01*
X232958D01*
X232696Y127133D01*
X232133Y127696D01*
X232001Y127750D01*
Y128250D01*
X232133Y128305D01*
X232696Y128867D01*
X232958Y129500D01*
D02*
G37*
G36*
Y125500D02*
X229042D01*
X229305Y124867D01*
X229867Y124304D01*
X229999Y124250D01*
Y123750D01*
X229867Y123696D01*
X229305Y123133D01*
X229042Y122500D01*
X232958D01*
X232696Y123133D01*
X232133Y123696D01*
X232001Y123750D01*
Y124250D01*
X232133Y124304D01*
X232696Y124867D01*
X232958Y125500D01*
D02*
G37*
G36*
Y121500D02*
X229042D01*
X229305Y120867D01*
X229867Y120305D01*
X229999Y120250D01*
Y119750D01*
X229867Y119695D01*
X229305Y119133D01*
X229042Y118500D01*
X232958D01*
X232696Y119133D01*
X232133Y119695D01*
X232001Y119750D01*
Y120250D01*
X232133Y120305D01*
X232696Y120867D01*
X232958Y121500D01*
D02*
G37*
G36*
Y117500D02*
X229042D01*
X229305Y116867D01*
X229867Y116305D01*
X229999Y116250D01*
Y115750D01*
X229867Y115696D01*
X229305Y115133D01*
X229042Y114500D01*
X232958D01*
X232696Y115133D01*
X232133Y115696D01*
X232001Y115750D01*
Y116250D01*
X232133Y116305D01*
X232696Y116867D01*
X232958Y117500D01*
D02*
G37*
G36*
Y113500D02*
X231500D01*
Y112042D01*
X232133Y112304D01*
X232696Y112867D01*
X232958Y113500D01*
D02*
G37*
G36*
X230500D02*
X229042D01*
X229305Y112867D01*
X229867Y112304D01*
X230500Y112042D01*
Y113500D01*
D02*
G37*
G36*
X231500Y86958D02*
Y85500D01*
X232958D01*
X232696Y86133D01*
X232133Y86695D01*
X231500Y86958D01*
D02*
G37*
G36*
X230500D02*
X229867Y86695D01*
X229305Y86133D01*
X229042Y85500D01*
X230500D01*
Y86958D01*
D02*
G37*
G36*
X232958Y84500D02*
X229042D01*
X229305Y83867D01*
X229867Y83305D01*
X229999Y83250D01*
Y82750D01*
X229867Y82696D01*
X229305Y82133D01*
X229042Y81500D01*
X232958D01*
X232696Y82133D01*
X232133Y82696D01*
X232001Y82750D01*
Y83250D01*
X232133Y83305D01*
X232696Y83867D01*
X232958Y84500D01*
D02*
G37*
G36*
Y80500D02*
X229042D01*
X229305Y79867D01*
X229867Y79304D01*
X229999Y79250D01*
Y78750D01*
X229867Y78695D01*
X229305Y78133D01*
X229042Y77500D01*
X232958D01*
X232696Y78133D01*
X232133Y78695D01*
X232001Y78750D01*
Y79250D01*
X232133Y79304D01*
X232696Y79867D01*
X232958Y80500D01*
D02*
G37*
G36*
Y76500D02*
X229042D01*
X229305Y75867D01*
X229867Y75305D01*
X229999Y75250D01*
Y74750D01*
X229867Y74695D01*
X229305Y74133D01*
X229042Y73500D01*
X232958D01*
X232696Y74133D01*
X232133Y74695D01*
X232001Y74750D01*
Y75250D01*
X232133Y75305D01*
X232696Y75867D01*
X232958Y76500D01*
D02*
G37*
G36*
Y72500D02*
X229042D01*
X229305Y71867D01*
X229867Y71305D01*
X229999Y71250D01*
Y70750D01*
X229867Y70696D01*
X229305Y70133D01*
X229042Y69500D01*
X232958D01*
X232696Y70133D01*
X232133Y70696D01*
X232001Y70750D01*
Y71250D01*
X232133Y71305D01*
X232696Y71867D01*
X232958Y72500D01*
D02*
G37*
G36*
Y68500D02*
X229042D01*
X229305Y67867D01*
X229867Y67304D01*
X229999Y67250D01*
Y66750D01*
X229867Y66695D01*
X229305Y66133D01*
X229042Y65500D01*
X232958D01*
X232696Y66133D01*
X232133Y66695D01*
X232001Y66750D01*
Y67250D01*
X232133Y67304D01*
X232696Y67867D01*
X232958Y68500D01*
D02*
G37*
G36*
Y64500D02*
X229042D01*
X229305Y63867D01*
X229867Y63305D01*
X229999Y63250D01*
Y62750D01*
X229867Y62695D01*
X229305Y62133D01*
X229042Y61500D01*
X232958D01*
X232696Y62133D01*
X232133Y62695D01*
X232001Y62750D01*
Y63250D01*
X232133Y63305D01*
X232696Y63867D01*
X232958Y64500D01*
D02*
G37*
G36*
Y60500D02*
X231500D01*
Y59042D01*
X232133Y59304D01*
X232696Y59867D01*
X232958Y60500D01*
D02*
G37*
G36*
X230500D02*
X229042D01*
X229305Y59867D01*
X229867Y59304D01*
X230500Y59042D01*
Y60500D01*
D02*
G37*
G36*
X15591Y133000D02*
X15500D01*
Y127500D01*
X21000D01*
Y127591D01*
X20769Y128750D01*
X20317Y129842D01*
X19660Y130825D01*
X18825Y131660D01*
X17842Y132317D01*
X16750Y132769D01*
X15591Y133000D01*
D02*
G37*
G36*
X14500D02*
X14409D01*
X13250Y132769D01*
X12158Y132317D01*
X11175Y131660D01*
X10340Y130825D01*
X9683Y129842D01*
X9231Y128750D01*
X9000Y127591D01*
Y127500D01*
X14500D01*
Y133000D01*
D02*
G37*
G36*
X21000Y126500D02*
X15500D01*
Y121000D01*
X15591D01*
X16750Y121231D01*
X17842Y121683D01*
X18825Y122339D01*
X19660Y123175D01*
X20317Y124158D01*
X20769Y125250D01*
X21000Y126409D01*
Y126500D01*
D02*
G37*
G36*
X14500D02*
X9000D01*
Y126409D01*
X9231Y125250D01*
X9683Y124158D01*
X10340Y123175D01*
X11175Y122339D01*
X12158Y121683D01*
X13250Y121231D01*
X14409Y121000D01*
X14500D01*
Y126500D01*
D02*
G37*
G36*
X65756Y78087D02*
X62500D01*
Y75421D01*
X65756D01*
Y78087D01*
D02*
G37*
G36*
X61500D02*
X58244D01*
Y75421D01*
X61500D01*
Y78087D01*
D02*
G37*
G36*
X77756Y78039D02*
X74500D01*
Y75374D01*
X77756D01*
Y78039D01*
D02*
G37*
G36*
X73500D02*
X70244D01*
Y75374D01*
X73500D01*
Y78039D01*
D02*
G37*
%LPD*%
D15*
X125253Y69839D02*
Y74736D01*
X124915Y75075D02*
X124954D01*
X125202Y74827D01*
Y74787D02*
Y74827D01*
Y74787D02*
X125253Y74736D01*
X122827Y77162D02*
X124915Y75075D01*
X107481Y77162D02*
X122827D01*
X127556Y74736D02*
Y74874D01*
X127706Y75024D02*
X127844D01*
X128993Y76173D02*
Y79951D01*
X127556Y74874D02*
X127706Y75024D01*
X127844D02*
X128993Y76173D01*
X144000Y75943D02*
X144203Y75740D01*
X135000Y75943D02*
X135203Y75740D01*
X128993Y79951D02*
X129000Y79958D01*
X100001Y67471D02*
Y68892D01*
X74000Y68968D02*
X74000Y68968D01*
X103500Y87000D02*
X103741Y86759D01*
X101241Y43027D02*
X103741Y45527D01*
X107500Y68912D02*
Y71000D01*
X107481Y68892D02*
X107500Y68912D01*
D16*
X127556Y74736D02*
D03*
D17*
X125253D02*
D03*
D18*
X107481Y77162D02*
D03*
X100001D02*
D03*
X103741D02*
D03*
X107481Y68892D02*
D03*
X103741D02*
D03*
D19*
X125304Y69787D02*
D03*
X127517D02*
D03*
D20*
X213000Y126000D02*
D03*
Y73000D02*
D03*
D21*
X224811Y126000D02*
D03*
Y73000D02*
D03*
X201189D02*
D03*
Y126000D02*
D03*
D22*
X144203Y75740D02*
D03*
X135203D02*
D03*
X74000Y68968D02*
D03*
X62000Y69016D02*
D03*
X144203Y69835D02*
D03*
X135203D02*
D03*
X74000Y74874D02*
D03*
X62000Y74921D02*
D03*
X91741Y50980D02*
D03*
Y45075D02*
D03*
D23*
X100001Y68892D02*
D03*
D24*
X118241Y43027D02*
D03*
X101241D02*
D03*
D25*
X160000Y10000D02*
D03*
X170000D02*
D03*
X104000Y200000D02*
D03*
X180000Y10000D02*
D03*
X150000D02*
D03*
X190000Y200000D02*
D03*
X200000D02*
D03*
X210000D02*
D03*
X220000D02*
D03*
X230000D02*
D03*
X240000D02*
D03*
X250000D02*
D03*
X84000D02*
D03*
X94000D02*
D03*
X114000D02*
D03*
X124000D02*
D03*
X134000D02*
D03*
X144000D02*
D03*
X154000D02*
D03*
X164000D02*
D03*
X120000Y10000D02*
D03*
X130000D02*
D03*
X140000D02*
D03*
X210000D02*
D03*
X220000D02*
D03*
X230000D02*
D03*
X240000D02*
D03*
X250000D02*
D03*
D26*
X15000Y90000D02*
D03*
Y127000D02*
D03*
D27*
X180000Y200000D02*
D03*
X74000D02*
D03*
X110000Y10000D02*
D03*
X200000D02*
D03*
D28*
X231000Y122000D02*
D03*
Y118000D02*
D03*
Y130000D02*
D03*
Y126000D02*
D03*
Y85000D02*
D03*
Y81000D02*
D03*
Y114000D02*
D03*
Y138000D02*
D03*
Y134000D02*
D03*
Y77000D02*
D03*
Y73000D02*
D03*
Y65000D02*
D03*
Y61000D02*
D03*
Y69000D02*
D03*
X129000Y79958D02*
D03*
X97000Y63000D02*
D03*
D29*
X145000Y81000D02*
D03*
X135500D02*
D03*
X74000Y64000D02*
D03*
X62000D02*
D03*
D30*
X145000Y80648D02*
Y81000D01*
X144500Y80148D02*
X145000Y80648D01*
X144500Y76443D02*
Y80148D01*
X144000Y75943D02*
X144500Y76443D01*
X135500Y80648D02*
Y81000D01*
X135000Y80148D02*
X135500Y80648D01*
X135000Y75943D02*
Y80148D01*
X97096Y64566D02*
X100001Y67471D01*
X97096Y63096D02*
Y64566D01*
X97000Y63000D02*
X97096Y63096D01*
X62000Y64000D02*
Y69016D01*
X74000Y64000D02*
Y68968D01*
X103741Y77162D02*
Y86759D01*
Y45527D02*
Y68892D01*
X240000Y10000D02*
X249000Y19000D01*
Y144000D01*
X216000Y177000D02*
X249000Y144000D01*
X97000Y177000D02*
X216000D01*
X74000Y200000D02*
X97000Y177000D01*
X257500Y17500D02*
Y147000D01*
X250000Y10000D02*
X257500Y17500D01*
X220500Y184000D02*
X257500Y147000D01*
X100000Y184000D02*
X220500D01*
X84000Y200000D02*
X100000Y184000D01*
X95662Y77162D02*
X100001D01*
X91741Y50980D02*
Y73241D01*
X95662Y77162D01*
X103950Y74550D02*
Y76953D01*
Y74550D02*
X107500Y71000D01*
M02*
